# xmcd
#
# Track frame offsets:
#	150
#	24870
#	48792
#	72857
#	93607
#	120990
#	142677
#	165957
#	188082
#	214995
#
# Disc length: 3230 seconds
#
# Revision: 0
# Processed by: cddbd v1.5.1PL2 Copyright (c) Steve Scherf et al.
# Submitted via: audiograbber 1.83.01
#
DISCID=760c9c0a
DTITLE=John Mayall - Blues Power CD 1
DYEAR=1999
DGENRE=Blues
TTITLE0=Chicago Line
TTITLE1=Gimme One More Day
TTITLE2=One Life to Live
TTITLE3=The Last Time
TTITLE4=Dream About The Blues
TTITLE5=Fascinatin' Lover
TTITLE6=Cold Blooded Woman
TTITLE7=The Dirty Dozen
TTITLE8=Tears Came Rollin' Down
TTITLE9=Life in The Jungle
EXTD=
EXTT0=
EXTT1=
EXTT2=
EXTT3=
EXTT4=
EXTT5=
EXTT6=
EXTT7=
EXTT8=
EXTT9=
PLAYORDER=
